<?xml version="1.0" encoding="UTF-8"?>
<svg id="Lag_2" data-name="Lag 2" xmlns="http://www.w3.org/2000/svg" viewBox="0 0 250.49 267.75">
  <defs>
    <style>
      .cls-1 {
        fill: #001e6a;
      }

      .cls-2 {
        fill: #f18b00;
      }

      .cls-3 {
        fill: #2d4d9b;
      }
    </style>
  </defs>
  <g id="Lag_1-2" data-name="Lag 1">
    <g>
      <path class="cls-2" d="m37.45,140.77c10.87-58.12,57.55-77.12,57.55-77.12l-9.08,31.13-21.03,12.54-8.21,24.3,30.42-8.73-15.93,116.3-17.77-19.31s-18.01-27.95-17.02-61.86c.14-4.69,26,14.26,26,14.26l1.82-28.08-26.76-3.45Z"/>
      <path class="cls-2" d="m120.34,55s-16.37,3.96-18.65,6.72c-4.69,5.66-23.63,184.31-23.61,184.46,17.61,13.62,25.49,14.5,31.12,16.39,20.67,6.94,42.42-192.65,11.15-207.56Z"/>
      <path class="cls-2" d="m153.11,53.69c-2.35-5.17-14.28-.78-20.94-.17-.64.06-1.09,1.52-.73,2.05,6.31,9.41,14.99,72.9-4.15,209.87-.07.47.26.91.73.97,3.62.5,17.93,3.36,27.73-1.27,11.05-5.22,25.39-191.65,32.39-198.03.3-.27,2.47-2.82,2.24-3.15-3.22-4.71-20.24-12.9-23.76-8.37-1.63,2.1,1.67,6.15,1.52,8.05-9.88,125.3-4.38,69.88-8.75,102.48-1.85,13.83-4.24,33.95-9.5,55.53,1.68-21.97,1.13-39.75.89-51.63-.94-46.34-.41,3,.45-109.05.01-1.44,3.1-4.62,1.9-7.27Z"/>
      <path class="cls-2" d="m193.93,74.75l-30.35,189.59s16.68,0,37.54-14.37l3.83-87.03,10.47,76.99c.72.19,46.06-41.07,32.55-103.35,0,0-3.53-20.2-16.67-39.22l-5.79,55.3-12.7-74.6s-7.08-7.41-17.19-12.13c-2.88-1.34-1.3,5.67-1.7,8.82Z"/>
    </g>
    <ellipse class="cls-1" cx="110.36" cy="159.26" rx="70.74" ry="16.3" transform="translate(-59.15 253.11) rotate(-84.25)"/>
    <path class="cls-3" d="m32.89,186.58S-12.36,255.69,3.29,264.32c15.66,8.63,60-31.43,97.72-74.26S234.37,30.37,214.98,3.37c0,0-2.83-21.18-69.06,42.65l9.43,5.24s25.47-29.43,36.35-26.83-74.69,114.9-74.69,114.9c0,0-73.52,91.84-94.29,92.16,0,0-6.24-2.09,17.65-35.92l-7.49-8.99Z"/>
  </g>
</svg>